<svg width="42" height="42" viewBox="0 0 42 42" fill="none" xmlns="http://www.w3.org/2000/svg">
<path d="M38.1671 10.8977C38.2685 10.7563 38.1187 10.5738 37.9565 10.6367C36.8037 11.0835 35.599 11.385 34.37 11.5336C35.7384 10.7161 36.7943 9.4717 37.3798 7.99843C37.4395 7.84835 37.2756 7.71433 37.1342 7.7924C35.8624 8.49474 34.4909 9.00049 33.0661 9.29175C33.0065 9.30395 32.945 9.28364 32.9031 9.23946C31.8339 8.11128 30.4265 7.36012 28.8922 7.10054C27.3257 6.83551 25.7155 7.09793 24.3142 7.84663C22.9129 8.59534 21.7997 9.78798 21.1492 11.2375C20.5308 12.6157 20.3639 14.1521 20.6689 15.6276C20.6926 15.742 20.603 15.8501 20.4863 15.8429C17.7142 15.6707 15.0057 14.9334 12.5277 13.6753C10.056 12.4204 7.8672 10.6747 6.09467 8.54577C6.016 8.45128 5.86691 8.46351 5.80959 8.57228C5.25804 9.6189 4.96926 10.7854 4.97005 11.9711C4.96781 13.1512 5.25743 14.3136 5.81312 15.3548C6.36881 16.3959 7.17333 17.2835 8.15505 17.9386C7.11393 17.9102 6.09311 17.6528 5.16473 17.1862C5.04509 17.126 4.90158 17.2117 4.9078 17.3454C4.9802 18.9016 5.55149 20.4639 6.54035 21.6625C7.59266 22.938 9.05325 23.8109 10.675 24.1336C10.0507 24.3235 9.40258 24.4237 8.75005 24.4311C8.3949 24.4269 8.04045 24.4007 7.68874 24.3526C7.55833 24.3348 7.45184 24.4587 7.49749 24.5821C7.98123 25.8902 8.83579 27.0316 9.95943 27.8648C11.1607 28.7556 12.6098 29.2498 14.1051 29.2786C11.5802 31.2653 8.46284 32.3495 5.25005 32.3586C4.91992 32.3596 4.58994 32.3489 4.26074 32.3265C4.07523 32.3139 3.98991 32.561 4.14981 32.6559C7.28016 34.5136 10.8581 35.4955 14.5075 35.491C17.202 35.519 19.875 35.0098 22.3705 33.9932C24.866 32.9766 27.1338 31.4728 29.0417 29.5699C30.9495 27.667 32.459 25.403 33.482 22.9101C34.5051 20.4173 35.0211 17.7456 35 15.051V14.2113C35 14.1561 35.0262 14.1041 35.0703 14.0708C36.2573 13.1746 37.3011 12.1046 38.1671 10.8977Z" fill="#F5F5F5"/>
</svg>
