<svg width="133" height="130" viewBox="0 0 133 130" fill="none" xmlns="http://www.w3.org/2000/svg">
<path d="M11.0835 64.9999C11.0835 94.9341 35.8752 119.167 66.5002 119.167C97.1252 119.167 121.917 94.9341 121.917 64.9999C121.917 35.0657 97.1252 10.8333 66.5002 10.8333C35.8752 10.8333 11.0835 35.0657 11.0835 64.9999ZM38.7918 64.9999C38.7918 62.054 41.3196 59.5833 44.3335 59.5833H60.9585V43.3333C60.9585 40.3874 63.4863 37.9166 66.5002 37.9166C69.5141 37.9166 72.0418 40.3874 72.0418 43.3333V59.5833H88.6668C91.6807 59.5833 94.2085 62.054 94.2085 64.9999C94.2085 67.9458 91.6807 70.4166 88.6668 70.4166H72.0418V86.6666C72.0418 89.6125 69.5141 92.0833 66.5002 92.0833C63.4863 92.0833 60.9585 89.6125 60.9585 86.6666V70.4166H44.3335C41.3196 70.4166 38.7918 67.9458 38.7918 64.9999Z" fill="#F2F2F2"/>
</svg>
