<svg width="46" height="46" viewBox="0 0 46 46" fill="none" xmlns="http://www.w3.org/2000/svg">
<mask id="path-1-inside-1_127_183" fill="white">
<path d="M17.7195 13.1297C17.4395 12.8496 17.4395 12.3955 17.7195 12.1154L18.7338 11.1012C19.0139 10.8211 19.468 10.8211 19.748 11.1012C20.0281 11.3813 20.0281 11.8353 19.748 12.1154L18.7338 13.1297C18.4537 13.4098 17.9996 13.4098 17.7195 13.1297Z"/>
<path d="M13.9902 15.4349C13.7101 15.7149 13.7101 16.169 13.9902 16.4491C14.2703 16.7292 14.7243 16.7292 15.0044 16.4491L16.0187 15.4349C16.2988 15.1548 16.2988 14.7007 16.0187 14.4206C15.7386 14.1405 15.2845 14.1405 15.0044 14.4206L13.9902 15.4349Z"/>
<path d="M18.2933 16.8692C18.0132 17.1493 18.0132 17.6034 18.2933 17.8835C18.5734 18.1636 19.0275 18.1636 19.3075 17.8835L20.3218 16.8692C20.6019 16.5891 20.6019 16.135 20.3218 15.855C20.0417 15.5749 19.5876 15.5749 19.3075 15.855L18.2933 16.8692Z"/>
<path d="M22.5964 12.5661C22.3163 12.8462 22.3163 13.3003 22.5964 13.5804C22.8765 13.8604 23.3306 13.8604 23.6106 13.5804L24.6249 12.5661C24.905 12.286 24.905 11.8319 24.6249 11.5519C24.3448 11.2718 23.8907 11.2718 23.6106 11.5519L22.5964 12.5661Z"/>
<path d="M26.8995 15.0147C26.6194 14.7347 26.6194 14.2806 26.8995 14.0005L27.9137 12.9862C28.1938 12.7062 28.6479 12.7062 28.928 12.9862C29.2081 13.2663 29.2081 13.7204 28.928 14.0005L27.9137 15.0147C27.6337 15.2948 27.1796 15.2948 26.8995 15.0147Z"/>
<path d="M29.7682 16.8692C29.4881 17.1493 29.4881 17.6034 29.7682 17.8835C30.0483 18.1636 30.5024 18.1636 30.7825 17.8835L31.7967 16.8692C32.0768 16.5891 32.0768 16.135 31.7967 15.855C31.5167 15.5749 31.0626 15.5749 30.7825 15.855L29.7682 16.8692Z"/>
<path d="M23.457 18.3138C23.1769 18.0337 23.1769 17.5796 23.457 17.2995L24.4713 16.2853C24.7513 16.0052 25.2054 16.0052 25.4855 16.2853C25.7656 16.5654 25.7656 17.0195 25.4855 17.2995L24.4713 18.3138C24.1912 18.5939 23.7371 18.5939 23.457 18.3138Z"/>
<path fill-rule="evenodd" clip-rule="evenodd" d="M9.62804 20.9119C8.04402 20.879 6.75163 19.5449 7.2084 18.0278C7.42341 17.3137 7.71435 16.6146 8.07911 15.9385C8.91487 14.3893 10.1218 12.9909 11.6309 11.8232C13.14 10.6555 14.9218 9.74137 16.8745 9.13299C18.8272 8.52461 20.9127 8.2339 23.0117 8.27745C25.1108 8.32101 27.1823 8.69797 29.1082 9.38682C31.034 10.0757 32.7763 11.0629 34.2357 12.2922C35.6951 13.5215 36.8429 14.9687 37.6137 16.5513C37.7361 16.8026 37.8486 17.0565 37.9511 17.3127C38.8342 19.519 36.8018 21.4757 34.4258 21.4264L9.62804 20.9119ZM8.58187 18.4413C8.76834 17.822 9.02165 17.2124 9.34149 16.6195C10.0744 15.261 11.1445 14.0131 12.5087 12.9576C13.8732 11.9018 15.4998 11.0637 17.3012 10.5024C19.1023 9.94128 21.0334 9.67108 22.982 9.71151C24.9305 9.75194 26.8487 10.102 28.6251 10.7374C30.4016 11.3728 31.9921 12.2778 33.3116 13.3892C34.6308 14.5004 35.6483 15.7916 36.3242 17.1793C36.4315 17.3997 36.5299 17.622 36.6195 17.8457C36.8344 18.3827 36.7168 18.8491 36.3527 19.2468C35.9544 19.6818 35.2579 20.009 34.4555 19.9923L9.65779 19.4778C9.25166 19.4694 8.91795 19.2927 8.72971 19.0788C8.56084 18.8869 8.50987 18.6805 8.58187 18.4413Z"/>
<path d="M9.32339 35.1421C7.73903 35.1421 6.45465 36.4265 6.45465 38.0109C6.45465 39.5952 7.73903 40.8796 9.32339 40.8796H30.1217C30.5178 40.8796 30.8389 40.5585 30.8389 40.1624C30.8389 39.7663 30.5178 39.4452 30.1217 39.4452H9.32339C8.53121 39.4452 7.88902 38.8031 7.88902 38.0109C7.88902 37.2187 8.53121 36.5765 9.32339 36.5765H36.5764C37.3686 36.5765 38.0108 37.2187 38.0108 38.0109C38.0108 38.8031 37.3686 39.4452 36.5764 39.4452H33.7077C33.3116 39.4452 32.9905 39.7663 32.9905 40.1624C32.9905 40.5585 33.3116 40.8796 33.7077 40.8796H36.5764C38.1607 40.8796 39.4451 39.5952 39.4451 38.0109C39.4451 36.4265 38.1607 35.1421 36.5764 35.1421H9.32339Z"/>
<path d="M7.65427 23.1365C8.09522 23.5374 8.45685 23.6672 8.74965 23.6672C9.04244 23.6672 9.40407 23.5374 9.84502 23.1365C10.4559 22.5811 11.1462 22.2328 11.9053 22.2328C12.6643 22.2328 13.3546 22.5811 13.9655 23.1365C14.4064 23.5374 14.7681 23.6672 15.0609 23.6672C15.3537 23.6672 15.7153 23.5374 16.1562 23.1365C16.7672 22.5811 17.4574 22.2328 18.2165 22.2328C18.9756 22.2328 19.6658 22.5811 20.2767 23.1365C20.7177 23.5374 21.0793 23.6672 21.3721 23.6672C21.6649 23.6672 22.0265 23.5374 22.4675 23.1365C23.0784 22.5811 23.7686 22.2328 24.5277 22.2328C25.2868 22.2328 25.977 22.5811 26.5879 23.1365C27.0289 23.5374 27.3905 23.6672 27.6833 23.6672C27.9761 23.6672 28.3377 23.5374 28.7787 23.1365C29.3896 22.5811 30.0798 22.2328 30.8389 22.2328C31.598 22.2328 32.2882 22.5811 32.8992 23.1365C33.3401 23.5374 33.7017 23.6672 33.9945 23.6672C34.2873 23.6672 34.649 23.5374 35.0899 23.1365C35.7008 22.5811 36.3911 22.2328 37.1501 22.2328C37.9092 22.2328 38.5995 22.5811 39.2104 23.1365C39.5035 23.403 39.5251 23.8565 39.2586 24.1496C38.9922 24.4427 38.5386 24.4643 38.2455 24.1979C37.8046 23.797 37.4429 23.6672 37.1501 23.6672C36.8573 23.6672 36.4957 23.797 36.0548 24.1979C35.4438 24.7532 34.7536 25.1016 33.9945 25.1016C33.2355 25.1016 32.5452 24.7532 31.9343 24.1979C31.4933 23.797 31.1317 23.6672 30.8389 23.6672C30.5461 23.6672 30.1845 23.797 29.7435 24.1979C29.1326 24.7532 28.4424 25.1016 27.6833 25.1016C26.9242 25.1016 26.234 24.7532 25.6231 24.1979C25.1821 23.797 24.8205 23.6672 24.5277 23.6672C24.2349 23.6672 23.8733 23.797 23.4323 24.1979C22.8214 24.7532 22.1312 25.1016 21.3721 25.1016C20.613 25.1016 19.9228 24.7532 19.3119 24.1979C18.8709 23.797 18.5093 23.6672 18.2165 23.6672C17.9237 23.6672 17.5621 23.797 17.1211 24.1979C16.5102 24.7532 15.8199 25.1016 15.0609 25.1016C14.3018 25.1016 13.6116 24.7532 13.0006 24.1979C12.5597 23.797 12.1981 23.6672 11.9053 23.6672C11.6125 23.6672 11.2508 23.797 10.8099 24.1979C10.199 24.7532 9.50872 25.1016 8.74965 25.1016C7.99057 25.1016 7.30033 24.7532 6.68941 24.1979C6.39633 23.9314 6.37473 23.4778 6.64117 23.1848C6.90761 22.8917 7.36119 22.8701 7.65427 23.1365Z"/>
<path d="M9.32339 28.6875C9.32339 28.2914 9.64449 27.9703 10.0406 27.9703H37.2936C37.6897 27.9703 38.0108 27.6492 38.0108 27.2531C38.0108 26.857 37.6897 26.5359 37.2936 26.5359H10.0406C8.85231 26.5359 7.88902 27.4992 7.88902 28.6875C7.88902 29.8757 8.85231 30.839 10.0406 30.839H35.8592C36.2553 30.839 36.5764 31.1601 36.5764 31.5562C36.5764 31.9523 36.2553 32.2734 35.8592 32.2734H8.60621C8.21012 32.2734 7.88902 32.5945 7.88902 32.9906C7.88902 33.3867 8.21012 33.7078 8.60621 33.7078H35.8592C37.0475 33.7078 38.0108 32.7445 38.0108 31.5562C38.0108 30.3679 37.0475 29.4047 35.8592 29.4047H10.0406C9.64449 29.4047 9.32339 29.0836 9.32339 28.6875Z"/>
</mask>
<path d="M17.7195 13.1297C17.4395 12.8496 17.4395 12.3955 17.7195 12.1154L18.7338 11.1012C19.0139 10.8211 19.468 10.8211 19.748 11.1012C20.0281 11.3813 20.0281 11.8353 19.748 12.1154L18.7338 13.1297C18.4537 13.4098 17.9996 13.4098 17.7195 13.1297Z" fill="#EEEEEE"/>
<path d="M13.9902 15.4349C13.7101 15.7149 13.7101 16.169 13.9902 16.4491C14.2703 16.7292 14.7243 16.7292 15.0044 16.4491L16.0187 15.4349C16.2988 15.1548 16.2988 14.7007 16.0187 14.4206C15.7386 14.1405 15.2845 14.1405 15.0044 14.4206L13.9902 15.4349Z" fill="#EEEEEE"/>
<path d="M18.2933 16.8692C18.0132 17.1493 18.0132 17.6034 18.2933 17.8835C18.5734 18.1636 19.0275 18.1636 19.3075 17.8835L20.3218 16.8692C20.6019 16.5891 20.6019 16.135 20.3218 15.855C20.0417 15.5749 19.5876 15.5749 19.3075 15.855L18.2933 16.8692Z" fill="#EEEEEE"/>
<path d="M22.5964 12.5661C22.3163 12.8462 22.3163 13.3003 22.5964 13.5804C22.8765 13.8604 23.3306 13.8604 23.6106 13.5804L24.6249 12.5661C24.905 12.286 24.905 11.8319 24.6249 11.5519C24.3448 11.2718 23.8907 11.2718 23.6106 11.5519L22.5964 12.5661Z" fill="#EEEEEE"/>
<path d="M26.8995 15.0147C26.6194 14.7347 26.6194 14.2806 26.8995 14.0005L27.9137 12.9862C28.1938 12.7062 28.6479 12.7062 28.928 12.9862C29.2081 13.2663 29.2081 13.7204 28.928 14.0005L27.9137 15.0147C27.6337 15.2948 27.1796 15.2948 26.8995 15.0147Z" fill="#EEEEEE"/>
<path d="M29.7682 16.8692C29.4881 17.1493 29.4881 17.6034 29.7682 17.8835C30.0483 18.1636 30.5024 18.1636 30.7825 17.8835L31.7967 16.8692C32.0768 16.5891 32.0768 16.135 31.7967 15.855C31.5167 15.5749 31.0626 15.5749 30.7825 15.855L29.7682 16.8692Z" fill="#EEEEEE"/>
<path d="M23.457 18.3138C23.1769 18.0337 23.1769 17.5796 23.457 17.2995L24.4713 16.2853C24.7513 16.0052 25.2054 16.0052 25.4855 16.2853C25.7656 16.5654 25.7656 17.0195 25.4855 17.2995L24.4713 18.3138C24.1912 18.5939 23.7371 18.5939 23.457 18.3138Z" fill="#EEEEEE"/>
<path fill-rule="evenodd" clip-rule="evenodd" d="M9.62804 20.9119C8.04402 20.879 6.75163 19.5449 7.2084 18.0278C7.42341 17.3137 7.71435 16.6146 8.07911 15.9385C8.91487 14.3893 10.1218 12.9909 11.6309 11.8232C13.14 10.6555 14.9218 9.74137 16.8745 9.13299C18.8272 8.52461 20.9127 8.2339 23.0117 8.27745C25.1108 8.32101 27.1823 8.69797 29.1082 9.38682C31.034 10.0757 32.7763 11.0629 34.2357 12.2922C35.6951 13.5215 36.8429 14.9687 37.6137 16.5513C37.7361 16.8026 37.8486 17.0565 37.9511 17.3127C38.8342 19.519 36.8018 21.4757 34.4258 21.4264L9.62804 20.9119ZM8.58187 18.4413C8.76834 17.822 9.02165 17.2124 9.34149 16.6195C10.0744 15.261 11.1445 14.0131 12.5087 12.9576C13.8732 11.9018 15.4998 11.0637 17.3012 10.5024C19.1023 9.94128 21.0334 9.67108 22.982 9.71151C24.9305 9.75194 26.8487 10.102 28.6251 10.7374C30.4016 11.3728 31.9921 12.2778 33.3116 13.3892C34.6308 14.5004 35.6483 15.7916 36.3242 17.1793C36.4315 17.3997 36.5299 17.622 36.6195 17.8457C36.8344 18.3827 36.7168 18.8491 36.3527 19.2468C35.9544 19.6818 35.2579 20.009 34.4555 19.9923L9.65779 19.4778C9.25166 19.4694 8.91795 19.2927 8.72971 19.0788C8.56084 18.8869 8.50987 18.6805 8.58187 18.4413Z" fill="#EEEEEE"/>
<path d="M9.32339 35.1421C7.73903 35.1421 6.45465 36.4265 6.45465 38.0109C6.45465 39.5952 7.73903 40.8796 9.32339 40.8796H30.1217C30.5178 40.8796 30.8389 40.5585 30.8389 40.1624C30.8389 39.7663 30.5178 39.4452 30.1217 39.4452H9.32339C8.53121 39.4452 7.88902 38.8031 7.88902 38.0109C7.88902 37.2187 8.53121 36.5765 9.32339 36.5765H36.5764C37.3686 36.5765 38.0108 37.2187 38.0108 38.0109C38.0108 38.8031 37.3686 39.4452 36.5764 39.4452H33.7077C33.3116 39.4452 32.9905 39.7663 32.9905 40.1624C32.9905 40.5585 33.3116 40.8796 33.7077 40.8796H36.5764C38.1607 40.8796 39.4451 39.5952 39.4451 38.0109C39.4451 36.4265 38.1607 35.1421 36.5764 35.1421H9.32339Z" fill="#EEEEEE"/>
<path d="M7.65427 23.1365C8.09522 23.5374 8.45685 23.6672 8.74965 23.6672C9.04244 23.6672 9.40407 23.5374 9.84502 23.1365C10.4559 22.5811 11.1462 22.2328 11.9053 22.2328C12.6643 22.2328 13.3546 22.5811 13.9655 23.1365C14.4064 23.5374 14.7681 23.6672 15.0609 23.6672C15.3537 23.6672 15.7153 23.5374 16.1562 23.1365C16.7672 22.5811 17.4574 22.2328 18.2165 22.2328C18.9756 22.2328 19.6658 22.5811 20.2767 23.1365C20.7177 23.5374 21.0793 23.6672 21.3721 23.6672C21.6649 23.6672 22.0265 23.5374 22.4675 23.1365C23.0784 22.5811 23.7686 22.2328 24.5277 22.2328C25.2868 22.2328 25.977 22.5811 26.5879 23.1365C27.0289 23.5374 27.3905 23.6672 27.6833 23.6672C27.9761 23.6672 28.3377 23.5374 28.7787 23.1365C29.3896 22.5811 30.0798 22.2328 30.8389 22.2328C31.598 22.2328 32.2882 22.5811 32.8992 23.1365C33.3401 23.5374 33.7017 23.6672 33.9945 23.6672C34.2873 23.6672 34.649 23.5374 35.0899 23.1365C35.7008 22.5811 36.3911 22.2328 37.1501 22.2328C37.9092 22.2328 38.5995 22.5811 39.2104 23.1365C39.5035 23.403 39.5251 23.8565 39.2586 24.1496C38.9922 24.4427 38.5386 24.4643 38.2455 24.1979C37.8046 23.797 37.4429 23.6672 37.1501 23.6672C36.8573 23.6672 36.4957 23.797 36.0548 24.1979C35.4438 24.7532 34.7536 25.1016 33.9945 25.1016C33.2355 25.1016 32.5452 24.7532 31.9343 24.1979C31.4933 23.797 31.1317 23.6672 30.8389 23.6672C30.5461 23.6672 30.1845 23.797 29.7435 24.1979C29.1326 24.7532 28.4424 25.1016 27.6833 25.1016C26.9242 25.1016 26.234 24.7532 25.6231 24.1979C25.1821 23.797 24.8205 23.6672 24.5277 23.6672C24.2349 23.6672 23.8733 23.797 23.4323 24.1979C22.8214 24.7532 22.1312 25.1016 21.3721 25.1016C20.613 25.1016 19.9228 24.7532 19.3119 24.1979C18.8709 23.797 18.5093 23.6672 18.2165 23.6672C17.9237 23.6672 17.5621 23.797 17.1211 24.1979C16.5102 24.7532 15.8199 25.1016 15.0609 25.1016C14.3018 25.1016 13.6116 24.7532 13.0006 24.1979C12.5597 23.797 12.1981 23.6672 11.9053 23.6672C11.6125 23.6672 11.2508 23.797 10.8099 24.1979C10.199 24.7532 9.50872 25.1016 8.74965 25.1016C7.99057 25.1016 7.30033 24.7532 6.68941 24.1979C6.39633 23.9314 6.37473 23.4778 6.64117 23.1848C6.90761 22.8917 7.36119 22.8701 7.65427 23.1365Z" fill="#EEEEEE"/>
<path d="M9.32339 28.6875C9.32339 28.2914 9.64449 27.9703 10.0406 27.9703H37.2936C37.6897 27.9703 38.0108 27.6492 38.0108 27.2531C38.0108 26.857 37.6897 26.5359 37.2936 26.5359H10.0406C8.85231 26.5359 7.88902 27.4992 7.88902 28.6875C7.88902 29.8757 8.85231 30.839 10.0406 30.839H35.8592C36.2553 30.839 36.5764 31.1601 36.5764 31.5562C36.5764 31.9523 36.2553 32.2734 35.8592 32.2734H8.60621C8.21012 32.2734 7.88902 32.5945 7.88902 32.9906C7.88902 33.3867 8.21012 33.7078 8.60621 33.7078H35.8592C37.0475 33.7078 38.0108 32.7445 38.0108 31.5562C38.0108 30.3679 37.0475 29.4047 35.8592 29.4047H10.0406C9.64449 29.4047 9.32339 29.0836 9.32339 28.6875Z" fill="#EEEEEE"/>
<path d="M17.7195 13.1297C17.4395 12.8496 17.4395 12.3955 17.7195 12.1154L18.7338 11.1012C19.0139 10.8211 19.468 10.8211 19.748 11.1012C20.0281 11.3813 20.0281 11.8353 19.748 12.1154L18.7338 13.1297C18.4537 13.4098 17.9996 13.4098 17.7195 13.1297Z" stroke="#EEEEEE" stroke-width="2.86874" mask="url(#path-1-inside-1_127_183)"/>
<path d="M13.9902 15.4349C13.7101 15.7149 13.7101 16.169 13.9902 16.4491C14.2703 16.7292 14.7243 16.7292 15.0044 16.4491L16.0187 15.4349C16.2988 15.1548 16.2988 14.7007 16.0187 14.4206C15.7386 14.1405 15.2845 14.1405 15.0044 14.4206L13.9902 15.4349Z" stroke="#EEEEEE" stroke-width="2.86874" mask="url(#path-1-inside-1_127_183)"/>
<path d="M18.2933 16.8692C18.0132 17.1493 18.0132 17.6034 18.2933 17.8835C18.5734 18.1636 19.0275 18.1636 19.3075 17.8835L20.3218 16.8692C20.6019 16.5891 20.6019 16.135 20.3218 15.855C20.0417 15.5749 19.5876 15.5749 19.3075 15.855L18.2933 16.8692Z" stroke="#EEEEEE" stroke-width="2.86874" mask="url(#path-1-inside-1_127_183)"/>
<path d="M22.5964 12.5661C22.3163 12.8462 22.3163 13.3003 22.5964 13.5804C22.8765 13.8604 23.3306 13.8604 23.6106 13.5804L24.6249 12.5661C24.905 12.286 24.905 11.8319 24.6249 11.5519C24.3448 11.2718 23.8907 11.2718 23.6106 11.5519L22.5964 12.5661Z" stroke="#EEEEEE" stroke-width="2.86874" mask="url(#path-1-inside-1_127_183)"/>
<path d="M26.8995 15.0147C26.6194 14.7347 26.6194 14.2806 26.8995 14.0005L27.9137 12.9862C28.1938 12.7062 28.6479 12.7062 28.928 12.9862C29.2081 13.2663 29.2081 13.7204 28.928 14.0005L27.9137 15.0147C27.6337 15.2948 27.1796 15.2948 26.8995 15.0147Z" stroke="#EEEEEE" stroke-width="2.86874" mask="url(#path-1-inside-1_127_183)"/>
<path d="M29.7682 16.8692C29.4881 17.1493 29.4881 17.6034 29.7682 17.8835C30.0483 18.1636 30.5024 18.1636 30.7825 17.8835L31.7967 16.8692C32.0768 16.5891 32.0768 16.135 31.7967 15.855C31.5167 15.5749 31.0626 15.5749 30.7825 15.855L29.7682 16.8692Z" stroke="#EEEEEE" stroke-width="2.86874" mask="url(#path-1-inside-1_127_183)"/>
<path d="M23.457 18.3138C23.1769 18.0337 23.1769 17.5796 23.457 17.2995L24.4713 16.2853C24.7513 16.0052 25.2054 16.0052 25.4855 16.2853C25.7656 16.5654 25.7656 17.0195 25.4855 17.2995L24.4713 18.3138C24.1912 18.5939 23.7371 18.5939 23.457 18.3138Z" stroke="#EEEEEE" stroke-width="2.86874" mask="url(#path-1-inside-1_127_183)"/>
<path fill-rule="evenodd" clip-rule="evenodd" d="M9.62804 20.9119C8.04402 20.879 6.75163 19.5449 7.2084 18.0278C7.42341 17.3137 7.71435 16.6146 8.07911 15.9385C8.91487 14.3893 10.1218 12.9909 11.6309 11.8232C13.14 10.6555 14.9218 9.74137 16.8745 9.13299C18.8272 8.52461 20.9127 8.2339 23.0117 8.27745C25.1108 8.32101 27.1823 8.69797 29.1082 9.38682C31.034 10.0757 32.7763 11.0629 34.2357 12.2922C35.6951 13.5215 36.8429 14.9687 37.6137 16.5513C37.7361 16.8026 37.8486 17.0565 37.9511 17.3127C38.8342 19.519 36.8018 21.4757 34.4258 21.4264L9.62804 20.9119ZM8.58187 18.4413C8.76834 17.822 9.02165 17.2124 9.34149 16.6195C10.0744 15.261 11.1445 14.0131 12.5087 12.9576C13.8732 11.9018 15.4998 11.0637 17.3012 10.5024C19.1023 9.94128 21.0334 9.67108 22.982 9.71151C24.9305 9.75194 26.8487 10.102 28.6251 10.7374C30.4016 11.3728 31.9921 12.2778 33.3116 13.3892C34.6308 14.5004 35.6483 15.7916 36.3242 17.1793C36.4315 17.3997 36.5299 17.622 36.6195 17.8457C36.8344 18.3827 36.7168 18.8491 36.3527 19.2468C35.9544 19.6818 35.2579 20.009 34.4555 19.9923L9.65779 19.4778C9.25166 19.4694 8.91795 19.2927 8.72971 19.0788C8.56084 18.8869 8.50987 18.6805 8.58187 18.4413Z" stroke="#EEEEEE" stroke-width="2.86874" mask="url(#path-1-inside-1_127_183)"/>
<path d="M9.32339 35.1421C7.73903 35.1421 6.45465 36.4265 6.45465 38.0109C6.45465 39.5952 7.73903 40.8796 9.32339 40.8796H30.1217C30.5178 40.8796 30.8389 40.5585 30.8389 40.1624C30.8389 39.7663 30.5178 39.4452 30.1217 39.4452H9.32339C8.53121 39.4452 7.88902 38.8031 7.88902 38.0109C7.88902 37.2187 8.53121 36.5765 9.32339 36.5765H36.5764C37.3686 36.5765 38.0108 37.2187 38.0108 38.0109C38.0108 38.8031 37.3686 39.4452 36.5764 39.4452H33.7077C33.3116 39.4452 32.9905 39.7663 32.9905 40.1624C32.9905 40.5585 33.3116 40.8796 33.7077 40.8796H36.5764C38.1607 40.8796 39.4451 39.5952 39.4451 38.0109C39.4451 36.4265 38.1607 35.1421 36.5764 35.1421H9.32339Z" stroke="#EEEEEE" stroke-width="2.86874" mask="url(#path-1-inside-1_127_183)"/>
<path d="M7.65427 23.1365C8.09522 23.5374 8.45685 23.6672 8.74965 23.6672C9.04244 23.6672 9.40407 23.5374 9.84502 23.1365C10.4559 22.5811 11.1462 22.2328 11.9053 22.2328C12.6643 22.2328 13.3546 22.5811 13.9655 23.1365C14.4064 23.5374 14.7681 23.6672 15.0609 23.6672C15.3537 23.6672 15.7153 23.5374 16.1562 23.1365C16.7672 22.5811 17.4574 22.2328 18.2165 22.2328C18.9756 22.2328 19.6658 22.5811 20.2767 23.1365C20.7177 23.5374 21.0793 23.6672 21.3721 23.6672C21.6649 23.6672 22.0265 23.5374 22.4675 23.1365C23.0784 22.5811 23.7686 22.2328 24.5277 22.2328C25.2868 22.2328 25.977 22.5811 26.5879 23.1365C27.0289 23.5374 27.3905 23.6672 27.6833 23.6672C27.9761 23.6672 28.3377 23.5374 28.7787 23.1365C29.3896 22.5811 30.0798 22.2328 30.8389 22.2328C31.598 22.2328 32.2882 22.5811 32.8992 23.1365C33.3401 23.5374 33.7017 23.6672 33.9945 23.6672C34.2873 23.6672 34.649 23.5374 35.0899 23.1365C35.7008 22.5811 36.3911 22.2328 37.1501 22.2328C37.9092 22.2328 38.5995 22.5811 39.2104 23.1365C39.5035 23.403 39.5251 23.8565 39.2586 24.1496C38.9922 24.4427 38.5386 24.4643 38.2455 24.1979C37.8046 23.797 37.4429 23.6672 37.1501 23.6672C36.8573 23.6672 36.4957 23.797 36.0548 24.1979C35.4438 24.7532 34.7536 25.1016 33.9945 25.1016C33.2355 25.1016 32.5452 24.7532 31.9343 24.1979C31.4933 23.797 31.1317 23.6672 30.8389 23.6672C30.5461 23.6672 30.1845 23.797 29.7435 24.1979C29.1326 24.7532 28.4424 25.1016 27.6833 25.1016C26.9242 25.1016 26.234 24.7532 25.6231 24.1979C25.1821 23.797 24.8205 23.6672 24.5277 23.6672C24.2349 23.6672 23.8733 23.797 23.4323 24.1979C22.8214 24.7532 22.1312 25.1016 21.3721 25.1016C20.613 25.1016 19.9228 24.7532 19.3119 24.1979C18.8709 23.797 18.5093 23.6672 18.2165 23.6672C17.9237 23.6672 17.5621 23.797 17.1211 24.1979C16.5102 24.7532 15.8199 25.1016 15.0609 25.1016C14.3018 25.1016 13.6116 24.7532 13.0006 24.1979C12.5597 23.797 12.1981 23.6672 11.9053 23.6672C11.6125 23.6672 11.2508 23.797 10.8099 24.1979C10.199 24.7532 9.50872 25.1016 8.74965 25.1016C7.99057 25.1016 7.30033 24.7532 6.68941 24.1979C6.39633 23.9314 6.37473 23.4778 6.64117 23.1848C6.90761 22.8917 7.36119 22.8701 7.65427 23.1365Z" stroke="#EEEEEE" stroke-width="2.86874" mask="url(#path-1-inside-1_127_183)"/>
<path d="M9.32339 28.6875C9.32339 28.2914 9.64449 27.9703 10.0406 27.9703H37.2936C37.6897 27.9703 38.0108 27.6492 38.0108 27.2531C38.0108 26.857 37.6897 26.5359 37.2936 26.5359H10.0406C8.85231 26.5359 7.88902 27.4992 7.88902 28.6875C7.88902 29.8757 8.85231 30.839 10.0406 30.839H35.8592C36.2553 30.839 36.5764 31.1601 36.5764 31.5562C36.5764 31.9523 36.2553 32.2734 35.8592 32.2734H8.60621C8.21012 32.2734 7.88902 32.5945 7.88902 32.9906C7.88902 33.3867 8.21012 33.7078 8.60621 33.7078H35.8592C37.0475 33.7078 38.0108 32.7445 38.0108 31.5562C38.0108 30.3679 37.0475 29.4047 35.8592 29.4047H10.0406C9.64449 29.4047 9.32339 29.0836 9.32339 28.6875Z" stroke="#EEEEEE" stroke-width="2.86874" mask="url(#path-1-inside-1_127_183)"/>
</svg>
