<svg width="65" height="64" viewBox="0 0 65 64" fill="none" xmlns="http://www.w3.org/2000/svg">
<path d="M5.4165 32.0002C5.4165 46.737 17.5327 58.6668 32.4998 58.6668C47.4669 58.6668 59.5832 46.737 59.5832 32.0002C59.5832 17.2633 47.4669 5.3335 32.4998 5.3335C17.5327 5.3335 5.4165 17.2633 5.4165 32.0002ZM17.6278 32.0002C17.6278 30.5499 18.8631 29.3335 20.3361 29.3335C21.0963 29.3335 21.7615 29.6142 22.2367 30.1288L28.4611 36.2107L42.8105 22.1288C43.2857 21.6142 43.9509 21.3335 44.7111 21.3335C46.184 21.3335 47.4194 22.5499 47.4194 24.0002C47.4194 24.7487 47.1343 25.4037 46.6117 25.8715L30.3617 41.8715C29.8865 42.3861 29.2213 42.6668 28.4611 42.6668C27.7009 42.6668 27.0357 42.3861 26.5605 41.8715L18.4355 33.8715C17.9128 33.4037 17.6278 32.7487 17.6278 32.0002Z" fill="#F2F2F2"/>
</svg>
