<svg width="68" height="69" viewBox="0 0 68 69" fill="none" xmlns="http://www.w3.org/2000/svg">
<path d="M32.8994 6.48173C17.8188 6.89529 5.95323 19.7199 6.37632 35.1484C6.79942 50.577 19.35 62.732 34.4306 62.3185C49.5111 61.9049 61.3767 49.0804 60.9536 33.6518C60.5305 18.2232 47.9799 6.06818 32.8994 6.48173ZM33.2822 20.4409C34.7663 20.4002 36.0459 21.6396 36.0876 23.1579L36.3173 31.5334L44.5039 31.3089C45.988 31.2682 47.2676 32.5076 47.3093 34.0259C47.3509 35.5443 46.1411 36.8519 44.657 36.8926L36.4704 37.1171L36.7001 45.4926C36.7417 47.011 35.5319 48.3186 34.0478 48.3593C32.5636 48.4 31.284 47.1607 31.2423 45.6423L31.0127 37.2668L22.8261 37.4913C21.3419 37.532 20.0623 36.2926 20.0206 34.7743C19.979 33.2559 21.1888 31.9483 22.6729 31.9076L30.8595 31.6831L30.6299 23.3076C30.5882 21.7892 31.798 20.4816 33.2822 20.4409Z" fill="#F2F2F2"/>
</svg>
