<svg width="95" height="95" viewBox="0 0 95 95" fill="none" xmlns="http://www.w3.org/2000/svg">
<path d="M27.9729 27.6361C17.1819 38.1788 17.1779 55.6506 27.9639 66.6906C38.7499 77.7306 56.217 78.1332 67.008 67.5905C77.799 57.0478 77.8031 39.576 67.017 28.536C56.231 17.496 38.7639 17.0934 27.9729 27.6361ZM37.7317 37.6247C38.7937 36.5872 40.5746 36.6282 41.6361 37.7147L47.4914 43.7079L53.3494 37.9847C54.4113 36.9471 56.1923 36.9882 57.2538 38.0747C58.3152 39.1611 58.3148 40.9426 57.2529 41.9801L51.3949 47.7033L57.2501 53.6965C58.3116 54.7829 58.3112 56.5644 57.2492 57.6019C56.1873 58.6394 54.4063 58.5984 53.3448 57.5119L47.4896 51.5188L41.6316 57.2419C40.5696 58.2795 38.7887 58.2384 37.7272 57.152C36.6657 56.0655 36.6661 54.284 37.7281 53.2465L43.5861 47.5233L37.7308 41.5302C36.6693 40.4437 36.6697 38.6623 37.7317 37.6247Z" fill="#F2F2F2"/>
</svg>
