<svg width="37" height="37" viewBox="0 0 37 37" fill="none" xmlns="http://www.w3.org/2000/svg">
<path d="M26.2083 7.70829C28.1557 7.70829 29.2917 8.84426 29.2917 10.7916H7.70833C7.70833 8.84426 8.8443 7.70829 10.7917 7.70829H26.2083ZM26.2083 4.62496H10.7917C7.32968 4.62496 4.625 7.32964 4.625 10.7916V13.875H32.375V10.7916C32.375 7.32964 29.6703 4.62496 26.2083 4.62496ZM7.70833 13.875H29.2917V26.2083C29.2917 28.1557 28.1557 29.2916 26.2083 29.2916H10.7917C8.8443 29.2916 7.70833 28.1557 7.70833 26.2083V13.875ZM4.625 10.7916V26.2083C4.625 29.6703 7.32968 32.375 10.7917 32.375H26.2083C29.6703 32.375 32.375 29.6703 32.375 26.2083V10.7916H4.625ZM9.25 3.08329V6.16663C9.25 7.00508 9.95322 7.70829 10.7917 7.70829C11.6301 7.70829 12.3333 7.00508 12.3333 6.16663V3.08329C12.3333 2.24484 11.6301 1.54163 10.7917 1.54163C9.95322 1.54163 9.25 2.24484 9.25 3.08329ZM27.75 6.16663V3.08329C27.75 2.24484 27.0468 1.54163 26.2083 1.54163C25.3699 1.54163 24.6667 2.24484 24.6667 3.08329V6.16663C24.6667 7.00508 25.3699 7.70829 26.2083 7.70829C27.0468 7.70829 27.75 7.00508 27.75 6.16663ZM12.3333 22.6111C11.1974 22.6111 10.2778 23.5307 10.2778 24.6666C10.2778 25.8026 11.1974 26.7222 12.3333 26.7222C13.4693 26.7222 14.3889 25.8026 14.3889 24.6666C14.3889 23.5307 13.4693 22.6111 12.3333 22.6111ZM18.5 22.6111C17.364 22.6111 16.4444 23.5307 16.4444 24.6666C16.4444 25.8026 17.364 26.7222 18.5 26.7222C19.636 26.7222 20.5556 25.8026 20.5556 24.6666C20.5556 23.5307 19.636 22.6111 18.5 22.6111ZM24.6667 22.6111C23.5307 22.6111 22.6111 23.5307 22.6111 24.6666C22.6111 25.8026 23.5307 26.7222 24.6667 26.7222C25.8026 26.7222 26.7222 25.8026 26.7222 24.6666C26.7222 23.5307 25.8026 22.6111 24.6667 22.6111ZM12.3333 16.4444C11.1974 16.4444 10.2778 17.364 10.2778 18.5C10.2778 19.6359 11.1974 20.5555 12.3333 20.5555C13.4693 20.5555 14.3889 19.6359 14.3889 18.5C14.3889 17.364 13.4693 16.4444 12.3333 16.4444ZM18.5 16.4444C17.364 16.4444 16.4444 17.364 16.4444 18.5C16.4444 19.6359 17.364 20.5555 18.5 20.5555C19.636 20.5555 20.5556 19.6359 20.5556 18.5C20.5556 17.364 19.636 16.4444 18.5 16.4444ZM24.6667 16.4444C23.5307 16.4444 22.6111 17.364 22.6111 18.5C22.6111 19.6359 23.5307 20.5555 24.6667 20.5555C25.8026 20.5555 26.7222 19.6359 26.7222 18.5C26.7222 17.364 25.8026 16.4444 24.6667 16.4444Z" fill="#F2F2F2"/>
</svg>
