<svg width="46" height="55" viewBox="0 0 46 55" fill="none" xmlns="http://www.w3.org/2000/svg">
<path d="M20.5117 40.5665L39.6784 17.6499C40.0482 17.2478 40.25 16.6849 40.25 16.0417C40.25 14.7953 39.3757 13.75 38.3333 13.75C37.7953 13.75 37.3246 13.9912 36.9883 14.4335L17.8216 37.3501C17.4518 37.7522 17.25 38.3151 17.25 38.9583C17.25 40.2047 18.1243 41.25 19.1667 41.25C19.7047 41.25 20.1754 41.0088 20.5117 40.5665ZM6.32164 26.8165L17.8216 40.5665C18.1579 41.0088 18.6287 41.25 19.1667 41.25C20.2091 41.25 21.0833 40.2047 21.0833 38.9583C21.0833 38.3151 20.8816 37.7522 20.5117 37.3501L9.0117 23.6001C8.67544 23.1579 8.20468 22.9167 7.66667 22.9167C6.62427 22.9167 5.75 23.962 5.75 25.2083C5.75 25.8516 5.95175 26.4145 6.32164 26.8165Z" fill="#F2F2F2"/>
</svg>
