<svg width="97" height="97" viewBox="0 0 97 97" fill="none" xmlns="http://www.w3.org/2000/svg">
<path d="M43.2529 71.5446L83.6696 31.1279C84.4496 30.4189 84.875 29.4262 84.875 28.2917C84.875 26.0936 83.0314 24.25 80.8333 24.25C79.6988 24.25 78.7061 24.6754 77.9971 25.4554L37.5804 65.8721C36.8004 66.5811 36.375 67.5738 36.375 68.7083C36.375 70.9064 38.2186 72.75 40.4167 72.75C41.5512 72.75 42.5439 72.3246 43.2529 71.5446ZM13.3304 47.2946L37.5804 71.5446C38.2895 72.3246 39.2822 72.75 40.4167 72.75C42.6148 72.75 44.4583 70.9064 44.4583 68.7083C44.4583 67.5738 44.0329 66.5811 43.2529 65.8721L19.0029 41.6221C18.2939 40.8421 17.3012 40.4167 16.1667 40.4167C13.9686 40.4167 12.125 42.2602 12.125 44.4583C12.125 45.5928 12.5504 46.5855 13.3304 47.2946Z" fill="#F2F2F2"/>
</svg>
