<svg width="78" height="78" viewBox="0 0 78 78" fill="none" xmlns="http://www.w3.org/2000/svg">
<path d="M0 60.6667C0 70.3977 7.60234 78 17.3333 78H60.6667C70.3977 78 78 70.3977 78 60.6667V60.5146V53.0643V21.7427C78 12.6199 71.0059 0 60.6667 0H17.3333C7.60234 0 0 7.60234 0 17.3333V60.6667ZM8.66667 60.6667V58.1579L17.3333 49.4912L26.2281 58.3099C28.5088 60.6667 32.1579 60.6667 34.4386 58.3099L52 40.8246L69.3333 58.0819V60.6667C69.3333 66.1404 66.1404 69.3333 60.6667 69.3333H17.3333C11.8597 69.3333 8.66667 66.1404 8.66667 60.6667ZM15.2047 23.7193C15.2047 18.9298 19.0058 15.1287 23.9474 15.1287C28.7368 15.1287 32.538 18.9298 32.538 23.7193C32.538 28.6608 28.7368 32.462 23.9474 32.462C19.0058 32.462 15.2047 28.6608 15.2047 23.7193Z" fill="#F2F2F2"/>
</svg>
