<svg width="104" height="104" viewBox="0 0 104 104" fill="none" xmlns="http://www.w3.org/2000/svg">
<path d="M13 73.6667C13 83.3977 20.6023 91 30.3333 91H73.6667C83.3977 91 91 83.3977 91 73.6667V73.5146V66.0643V34.7427C91 25.6199 84.0059 13 73.6667 13H30.3333C20.6023 13 13 20.6023 13 30.3333V73.6667ZM21.6667 73.6667V71.1579L30.3333 62.4912L39.2281 71.3099C41.5088 73.6667 45.1579 73.6667 47.4386 71.3099L65 53.8246L82.3333 71.0819V73.6667C82.3333 79.1404 79.1404 82.3333 73.6667 82.3333H30.3333C24.8597 82.3333 21.6667 79.1404 21.6667 73.6667ZM28.2047 36.7193C28.2047 31.9298 32.0058 28.1287 36.9474 28.1287C41.7368 28.1287 45.538 31.9298 45.538 36.7193C45.538 41.6608 41.7368 45.462 36.9474 45.462C32.0058 45.462 28.2047 41.6608 28.2047 36.7193Z" fill="#F2F2F2"/>
</svg>
