<svg width="20" height="23" viewBox="0 0 20 23" fill="none" xmlns="http://www.w3.org/2000/svg">
<path fill-rule="evenodd" clip-rule="evenodd" d="M12.6197 15.5776C9.75846 18.1562 5.57021 17.9533 2.91786 14.9687C0.0719779 11.7664 0.0719779 6.57448 2.91786 3.37218C5.76373 0.169884 10.3778 0.169884 13.2237 3.37218C15.876 6.35672 16.0564 11.0695 13.7648 14.2891L19.3308 20.5522C19.647 20.908 19.647 21.4849 19.3308 21.8407C19.0146 22.1965 18.5019 22.1965 18.1857 21.8407L12.6197 15.5776ZM4.06295 13.6802C1.84949 11.1896 1.84949 7.15137 4.06295 4.66069C6.27641 2.17001 9.86514 2.17001 12.0786 4.66069C14.2904 7.14954 14.2921 11.1836 12.0835 13.6747C12.0818 13.6766 12.0802 13.6784 12.0786 13.6802C12.077 13.682 12.0753 13.6839 12.0737 13.6857C9.85988 16.1709 6.27479 16.1691 4.06295 13.6802Z" fill="#F5F5F5"/>
</svg>
