<svg width="121" height="121" viewBox="0 0 121 121" fill="none" xmlns="http://www.w3.org/2000/svg">
<path fill-rule="evenodd" clip-rule="evenodd" d="M61.6608 12.6181C35.2165 11.9771 13.2594 32.8948 12.6184 59.3392C11.9773 85.7835 32.895 107.741 59.3394 108.382C61.0418 108.423 62.5814 107.945 63.8679 106.972C65.116 106.028 65.9807 104.73 66.5854 103.34C67.771 100.616 68.1705 97.0436 68.1905 93.3595C68.2631 80.0408 79.947 68.4741 93.1327 68.9737C96.7601 69.1111 100.259 68.9169 102.956 68.0274C104.321 67.5774 105.649 66.8955 106.666 65.8318C107.734 64.7146 108.342 63.2934 108.382 61.6606C109.023 35.2162 88.1052 13.2592 61.6608 12.6181ZM44.8207 77.6552C42.0569 77.9932 40.0904 80.5077 40.4284 83.2716C40.7664 86.0354 43.2809 88.002 46.0448 87.664C48.8086 87.326 50.7751 84.8114 50.4371 82.0476C50.0991 79.2837 47.5846 77.3172 44.8207 77.6552ZM27.9716 64.4781C27.6336 61.7143 29.6001 59.1997 32.364 58.8617C35.1278 58.5237 37.6424 60.4902 37.9804 63.2541C38.3184 66.0179 36.3518 68.5325 33.588 68.8705C30.8242 69.2085 28.3096 67.242 27.9716 64.4781ZM39.9246 37.6202C37.1608 37.9582 35.1943 40.4727 35.5323 43.2366C35.8703 46.0004 38.3848 47.967 41.1487 47.629C43.9125 47.2909 45.879 44.7764 45.541 42.0126C45.203 39.2487 42.6885 37.2822 39.9246 37.6202ZM79.1405 46.7921C78.8025 44.0283 80.769 41.5137 83.5329 41.1757C86.2967 40.8377 88.8112 42.8043 89.1493 45.5681C89.4873 48.3319 87.5207 50.8465 84.7569 51.1845C81.993 51.5225 79.4785 49.556 79.1405 46.7921ZM60.4627 54.8463C57.6989 55.1843 55.7323 57.6988 56.0703 60.4627C56.4083 63.2265 58.9229 65.1931 61.6867 64.8551C64.4506 64.5171 66.4171 62.0025 66.0791 59.2387C65.7411 56.4748 63.2266 54.5083 60.4627 54.8463ZM57.44 35.4781C57.102 32.7142 59.0685 30.1997 61.8324 29.8617C64.5962 29.5237 67.1108 31.4902 67.4488 34.254C67.7868 37.0179 65.8202 39.5324 63.0564 39.8704C60.2926 40.2084 57.778 38.2419 57.44 35.4781Z" fill="#F5F5F5"/>
</svg>
