<svg width="44" height="38" viewBox="0 0 44 38" fill="none" xmlns="http://www.w3.org/2000/svg">
<path d="M11 9.49984C11 5.99984 7.71928 3.1665 3.66665 3.1665C2.66957 3.1665 1.83331 3.88873 1.83331 4.74984C1.83331 5.61095 2.66957 6.33317 3.66665 6.33317C5.91811 6.33317 7.33331 7.55539 7.33331 9.49984C7.33331 10.3609 8.16957 11.0832 9.16665 11.0832C10.1637 11.0832 11 10.3609 11 9.49984ZM31.9064 7.9165H7.33331V22.1665C7.33331 25.6665 10.614 28.4998 14.6666 28.4998H30.2339C33.7719 28.4998 36.8275 26.3054 37.4707 23.3054L39.1111 15.3887C39.9152 11.4998 36.5058 7.9165 31.9064 7.9165ZM31.1666 30.0832C29.1403 30.0832 27.5 31.4998 27.5 33.2498C27.5 34.9998 29.1403 36.4165 31.1666 36.4165C33.193 36.4165 34.8333 34.9998 34.8333 33.2498C34.8333 31.4998 33.193 30.0832 31.1666 30.0832ZM12.8333 30.0832C10.807 30.0832 9.16665 31.4998 9.16665 33.2498C9.16665 34.9998 10.807 36.4165 12.8333 36.4165C14.8596 36.4165 16.5 34.9998 16.5 33.2498C16.5 31.4998 14.8596 30.0832 12.8333 30.0832Z" fill="#F2F2F2"/>
</svg>
