<svg width="641" height="39" viewBox="0 0 641 39" fill="none" xmlns="http://www.w3.org/2000/svg">
<path d="M257.105 31L266.255 10H270.785L279.875 31H274.655L269.795 19.63C269.615 19.19 269.435 18.75 269.255 18.31C269.095 17.87 268.935 17.42 268.775 16.96C268.615 16.5 268.465 16.05 268.325 15.61C268.185 15.17 268.055 14.75 267.935 14.35L268.955 14.32C268.835 14.8 268.695 15.26 268.535 15.7C268.395 16.14 268.245 16.58 268.085 17.02C267.925 17.44 267.755 17.87 267.575 18.31C267.395 18.75 267.215 19.2 267.035 19.66L262.175 31H257.105ZM261.395 27.1L263.045 23.26H273.845L275.075 27.1H261.395ZM294.036 31.3C292.296 31.3 290.706 31.05 289.266 30.55C287.846 30.05 286.616 29.33 285.576 28.39C284.536 27.43 283.726 26.28 283.146 24.94C282.586 23.58 282.306 22.07 282.306 20.41C282.306 18.85 282.596 17.42 283.176 16.12C283.776 14.8 284.626 13.65 285.726 12.67C286.826 11.69 288.116 10.93 289.596 10.39C291.096 9.85 292.726 9.58 294.486 9.58C295.826 9.58 297.066 9.74 298.206 10.06C299.346 10.38 300.366 10.8 301.266 11.32C302.186 11.84 302.946 12.42 303.546 13.06L300.456 16.39C299.916 15.93 299.336 15.54 298.716 15.22C298.116 14.88 297.456 14.61 296.736 14.41C296.036 14.19 295.276 14.08 294.456 14.08C293.476 14.08 292.566 14.24 291.726 14.56C290.906 14.88 290.186 15.33 289.566 15.91C288.946 16.47 288.466 17.14 288.126 17.92C287.786 18.68 287.616 19.51 287.616 20.41C287.616 21.43 287.796 22.34 288.156 23.14C288.516 23.92 289.006 24.58 289.626 25.12C290.266 25.66 291.006 26.08 291.846 26.38C292.686 26.66 293.586 26.8 294.546 26.8C295.326 26.8 296.056 26.7 296.736 26.5C297.436 26.3 298.046 26.03 298.566 25.69C299.086 25.35 299.476 24.94 299.736 24.46C300.016 23.96 300.166 23.43 300.186 22.87V22.18L300.846 23.29H294.036V19.33H304.986C305.026 19.59 305.056 19.9 305.076 20.26C305.096 20.62 305.106 20.96 305.106 21.28C305.126 21.6 305.136 21.83 305.136 21.97C305.136 23.41 304.856 24.71 304.296 25.87C303.756 27.01 302.996 27.98 302.016 28.78C301.036 29.58 299.866 30.2 298.506 30.64C297.146 31.08 295.656 31.3 294.036 31.3ZM321.432 31.3C319.672 31.3 318.072 31.03 316.632 30.49C315.212 29.95 313.962 29.19 312.882 28.21C311.822 27.21 311.002 26.05 310.422 24.73C309.842 23.41 309.552 21.97 309.552 20.41C309.552 18.85 309.842 17.41 310.422 16.09C311.002 14.77 311.822 13.62 312.882 12.64C313.962 11.64 315.212 10.87 316.632 10.33C318.072 9.79 319.662 9.52 321.402 9.52C323.122 9.52 324.702 9.79 326.142 10.33C327.582 10.87 328.832 11.64 329.892 12.64C330.952 13.62 331.772 14.77 332.352 16.09C332.932 17.41 333.222 18.85 333.222 20.41C333.222 21.95 332.932 23.39 332.352 24.73C331.772 26.05 330.952 27.21 329.892 28.21C328.832 29.19 327.582 29.95 326.142 30.49C324.702 31.03 323.132 31.3 321.432 31.3ZM321.402 26.5C322.362 26.5 323.242 26.35 324.042 26.05C324.862 25.75 325.572 25.33 326.172 24.79C326.772 24.23 327.232 23.58 327.552 22.84C327.872 22.1 328.032 21.29 328.032 20.41C328.032 19.53 327.872 18.72 327.552 17.98C327.232 17.24 326.772 16.6 326.172 16.06C325.572 15.5 324.862 15.07 324.042 14.77C323.242 14.47 322.362 14.32 321.402 14.32C320.442 14.32 319.552 14.47 318.732 14.77C317.932 15.07 317.222 15.5 316.602 16.06C316.002 16.62 315.542 17.27 315.222 18.01C314.922 18.75 314.772 19.55 314.772 20.41C314.772 21.29 314.922 22.1 315.222 22.84C315.542 23.58 316.002 24.23 316.602 24.79C317.222 25.33 317.932 25.75 318.732 26.05C319.552 26.35 320.442 26.5 321.402 26.5ZM339.175 31V10H349.705C351.185 10 352.485 10.29 353.605 10.87C354.725 11.43 355.595 12.21 356.215 13.21C356.835 14.21 357.145 15.37 357.145 16.69C357.145 18.03 356.815 19.23 356.155 20.29C355.515 21.33 354.625 22.16 353.485 22.78C352.365 23.38 351.105 23.68 349.705 23.68H344.035V31H339.175ZM352.315 31L346.255 21.52L351.535 20.77L358.195 31H352.315ZM344.035 19.78H349.195C349.755 19.78 350.245 19.66 350.665 19.42C351.105 19.18 351.445 18.85 351.685 18.43C351.945 18.01 352.075 17.52 352.075 16.96C352.075 16.42 351.935 15.95 351.655 15.55C351.395 15.13 351.025 14.81 350.545 14.59C350.085 14.37 349.535 14.26 348.895 14.26H344.035V19.78ZM361.138 31L370.288 10H374.818L383.908 31H378.688L373.828 19.63C373.648 19.19 373.468 18.75 373.288 18.31C373.128 17.87 372.968 17.42 372.808 16.96C372.648 16.5 372.498 16.05 372.358 15.61C372.218 15.17 372.088 14.75 371.968 14.35L372.988 14.32C372.868 14.8 372.728 15.26 372.568 15.7C372.428 16.14 372.278 16.58 372.118 17.02C371.958 17.44 371.788 17.87 371.608 18.31C371.428 18.75 371.248 19.2 371.068 19.66L366.208 31H361.138ZM365.428 27.1L367.078 23.26H377.878L379.108 27.1H365.428Z" fill="white"/>
<line x1="416.706" y1="5.52913" x2="436.706" y2="1.52913" stroke="#F5F5F5" stroke-width="3"/>
<line x1="417" y1="16.5" x2="445" y2="16.5" stroke="#F5F5F5" stroke-width="3"/>
<line x1="417.294" y1="27.5291" x2="437.294" y2="31.5291" stroke="#F5F5F5" stroke-width="3"/>
<line y1="-1.5" x2="22.5012" y2="-1.5" transform="matrix(-0.984072 -0.177768 -0.216192 0.976351 235 9)" stroke="#F5F5F5" stroke-width="3"/>
<line y1="-1.5" x2="31" y2="-1.5" transform="matrix(-1 0 0 1 235 20)" stroke="#F5F5F5" stroke-width="3"/>
<line y1="-1.5" x2="22.5012" y2="-1.5" transform="matrix(-0.984072 0.177768 0.216192 0.976351 235 31)" stroke="#F5F5F5" stroke-width="3"/>
</svg>
