<svg width="78" height="78" viewBox="0 0 78 78" fill="none" xmlns="http://www.w3.org/2000/svg">
<g clip-path="url(#clip0_43_73)">
<path d="M42.5781 31.9677L38.5887 31.6776L38.2986 35.6671L42.2881 35.9571L42.5781 31.9677ZM44.3547 7.53217L48.3442 7.82222C48.4677 6.12298 47.5014 4.53197 45.9365 3.85823C44.3717 3.18448 42.5518 3.57588 41.4023 4.83339L44.3547 7.53217ZM11.2679 43.7282L8.31553 41.0295C7.2814 42.1608 6.98467 43.7835 7.55153 45.2076C8.11839 46.6316 9.44916 47.6066 10.9779 47.7177L11.2679 43.7282ZM34.8307 45.4414L38.8202 45.7314L39.1102 41.7419L35.1208 41.4519L34.8307 45.4414ZM33.0542 69.8769L29.0647 69.5868C28.9411 71.286 29.9075 72.877 31.4723 73.5508C33.0372 74.2245 34.8571 73.8331 36.0065 72.5756L33.0542 69.8769ZM66.1409 33.6808L69.0933 36.3796C70.1275 35.2483 70.4242 33.6255 69.8573 32.2014C69.2905 30.7774 67.9597 29.8025 66.431 29.6913L66.1409 33.6808ZM46.5676 32.2577L48.3442 7.82222L40.3652 7.24212L38.5887 31.6776L46.5676 32.2577ZM41.4023 4.83339L8.31553 41.0295L14.2203 46.427L47.3071 10.2309L41.4023 4.83339ZM10.9779 47.7177L34.5407 49.4308L35.1208 41.4519L11.558 39.7388L10.9779 47.7177ZM30.8413 45.1513L29.0647 69.5868L37.0436 70.1669L38.8202 45.7314L30.8413 45.1513ZM36.0065 72.5756L69.0933 36.3796L63.1885 30.982L30.1018 67.1781L36.0065 72.5756ZM66.431 29.6913L42.8682 27.9782L42.2881 35.9571L65.8509 37.6703L66.431 29.6913Z" fill="#F5F5F5"/>
</g>
<defs>
<clipPath id="clip0_43_73">
<rect width="72" height="72" fill="white" transform="translate(5.40967 0.188721) rotate(4.15833)"/>
</clipPath>
</defs>
</svg>
