<svg width="82" height="83" viewBox="0 0 82 83" fill="none" xmlns="http://www.w3.org/2000/svg">
<path d="M61.5 20.7503H49.2342L57.0925 12.8307C57.4111 12.5083 57.6638 12.1255 57.8362 11.7042C58.0086 11.2829 58.0973 10.8313 58.0973 10.3753C58.0973 9.9193 58.0086 9.46775 57.8362 9.04645C57.6638 8.62515 57.4111 8.24235 57.0925 7.9199C56.7739 7.59745 56.3957 7.34167 55.9795 7.16716C55.5633 6.99265 55.1172 6.90283 54.6667 6.90283C53.7568 6.90283 52.8842 7.26868 52.2408 7.9199L41 19.1595L37.0025 12.2428C36.7782 11.8477 36.4791 11.5012 36.1225 11.223C35.7658 10.9449 35.3586 10.7406 34.9239 10.6218C34.4892 10.5029 34.0357 10.4719 33.5892 10.5305C33.1427 10.5891 32.712 10.7362 32.3217 10.9632C31.9313 11.1903 31.589 11.493 31.3142 11.854C31.0394 12.215 30.8375 12.6272 30.7201 13.0672C30.6028 13.5071 30.5721 13.9662 30.63 14.4181C30.6879 14.8701 30.8332 15.306 31.0575 15.7011L34.1667 20.7503H20.5C17.7815 20.7503 15.1744 21.8434 13.2522 23.7891C11.3299 25.7348 10.25 28.3737 10.25 31.1253V58.792C10.25 61.5436 11.3299 64.1825 13.2522 66.1282C15.1744 68.0739 17.7815 69.167 20.5 69.167V72.6253C20.5 73.5425 20.86 74.4222 21.5007 75.0707C22.1415 75.7193 23.0105 76.0836 23.9167 76.0836C24.8228 76.0836 25.6919 75.7193 26.3326 75.0707C26.9734 74.4222 27.3333 73.5425 27.3333 72.6253V69.167H54.6667V72.6253C54.6667 73.5425 55.0266 74.4222 55.6674 75.0707C56.3081 75.7193 57.1772 76.0836 58.0833 76.0836C58.9895 76.0836 59.8585 75.7193 60.4993 75.0707C61.14 74.4222 61.5 73.5425 61.5 72.6253V69.167C64.2185 69.167 66.8256 68.0739 68.7478 66.1282C70.6701 64.1825 71.75 61.5436 71.75 58.792V31.1253C71.75 28.3737 70.6701 25.7348 68.7478 23.7891C66.8256 21.8434 64.2185 20.7503 61.5 20.7503ZM64.9167 58.792C64.9167 59.7092 64.5567 60.5888 63.916 61.2374C63.2752 61.886 62.4062 62.2503 61.5 62.2503H20.5C19.5938 62.2503 18.7248 61.886 18.0841 61.2374C17.4433 60.5888 17.0833 59.7092 17.0833 58.792V31.1253C17.0833 30.2081 17.4433 29.3285 18.0841 28.6799C18.7248 28.0313 19.5938 27.667 20.5 27.667H61.5C62.4062 27.667 63.2752 28.0313 63.916 28.6799C64.5567 29.3285 64.9167 30.2081 64.9167 31.1253V58.792Z" fill="white"/>
</svg>
