<svg width="36" height="36" viewBox="0 0 36 36" fill="none" xmlns="http://www.w3.org/2000/svg">
<path d="M21.3 4.3125C19.4601 4.3125 17.6955 5.04341 16.3944 6.34445C15.0934 7.64548 14.3625 9.41006 14.3625 11.25V15.1125H10.65C10.4636 15.1125 10.3125 15.2636 10.3125 15.45V20.55C10.3125 20.7364 10.4636 20.8875 10.65 20.8875H14.3625V31.35C14.3625 31.5364 14.5136 31.6875 14.7 31.6875H19.8C19.9864 31.6875 20.1375 31.5364 20.1375 31.35V20.8875H23.8829C24.0378 20.8875 24.1727 20.7821 24.2103 20.6319L25.4853 15.5319C25.5386 15.3188 25.3775 15.1125 25.1579 15.1125H20.1375V11.25C20.1375 10.9417 20.26 10.646 20.478 10.428C20.696 10.21 20.9917 10.0875 21.3 10.0875H25.2C25.3864 10.0875 25.5375 9.9364 25.5375 9.75V4.65C25.5375 4.4636 25.3864 4.3125 25.2 4.3125H21.3Z" fill="#F5F5F5"/>
</svg>
