<svg width="49" height="46" viewBox="0 0 49 46" fill="none" xmlns="http://www.w3.org/2000/svg">
<path d="M24.4999 16.7707C20.8353 16.7707 17.8645 19.5596 17.8645 22.9999C17.8645 26.4402 20.8353 29.229 24.4999 29.229C28.1646 29.229 31.1354 26.4402 31.1354 22.9999C31.1354 19.5596 28.1646 16.7707 24.4999 16.7707Z" fill="#F5F5F5"/>
<path fill-rule="evenodd" clip-rule="evenodd" d="M13.8211 5.90603C20.861 5.16739 28.1389 5.16739 35.1789 5.90603C39.0547 6.3127 42.1809 9.17961 42.6358 12.831C43.4776 19.5872 43.4776 26.4126 42.6358 33.1688C42.1809 36.8202 39.0547 39.6871 35.1789 40.0937C28.1389 40.8324 20.861 40.8324 13.8211 40.0937C9.94519 39.6871 6.819 36.8202 6.36409 33.1688C5.52235 26.4125 5.52235 19.5872 6.36409 12.831C6.819 9.17961 9.94519 6.3127 13.8211 5.90603ZM34.7083 11.4999C33.5807 11.4999 32.6666 12.358 32.6666 13.4166C32.6666 14.4751 33.5807 15.3332 34.7083 15.3332C35.8359 15.3332 36.7499 14.4751 36.7499 13.4166C36.7499 12.358 35.8359 11.4999 34.7083 11.4999ZM14.802 22.9999C14.802 17.9718 19.1439 13.8957 24.4999 13.8957C29.856 13.8957 34.1979 17.9718 34.1979 22.9999C34.1979 28.028 29.856 32.104 24.4999 32.104C19.1439 32.104 14.802 28.028 14.802 22.9999Z" fill="#F5F5F5"/>
</svg>
